<svg xmlns="http://www.w3.org/2000/svg" xmlns:xlink="http://www.w3.org/1999/xlink" viewBox="0 0 128 95.66"><defs><style>.a{fill:none;}.b{clip-path:url(#a);}.c{fill:url(#b);}.d{fill:#fff;}</style><clipPath id="a"><rect class="a" width="128" height="95.66"/></clipPath><linearGradient id="b" x1="-1638.26" y1="-81.69" x2="-1637.26" y2="-81.69" gradientTransform="matrix(0, -95.66, -95.66, 0, -7750.54, -156619.26)" gradientUnits="userSpaceOnUse"><stop offset="0" stop-color="#83cee8"/><stop offset="0.13" stop-color="#8bd0d6"/><stop offset="0.38" stop-color="#9fd4a7"/><stop offset="0.74" stop-color="#beda5d"/><stop offset="1" stop-color="#d7df23"/></linearGradient></defs><g class="b"><rect class="c" width="128" height="95.66"/></g><polygon class="d" points="44.98 78.67 43.68 78.67 36.32 67.77 35.29 65.98 35.27 65.98 35.33 67.67 35.33 78.67 34.32 78.67 34.32 64.79 35.64 64.79 42.99 75.66 44.04 77.47 43.99 75.79 43.99 64.79 44.98 64.79 44.98 78.67"/><rect class="d" x="49.46" y="64.79" width="1.05" height="13.88"/><polygon class="d" points="64.46 65.75 59.39 65.75 59.39 78.67 58.34 78.67 58.34 65.75 53.27 65.75 53.27 64.78 64.46 64.78 64.46 65.75"/><polygon class="d" points="95.03 78.67 92.42 78.67 92.42 71.43 92.55 67.37 92.5 67.37 88.65 78.67 86.28 78.67 82.45 67.37 82.41 67.37 82.55 71.43 82.55 78.67 79.92 78.67 79.92 64.79 84.13 64.79 86.63 72.36 87.52 75.49 87.56 75.49 88.46 72.38 90.95 64.79 95.03 64.79 95.03 78.67"/><polygon class="d" points="108.55 76.33 108.55 78.67 98.33 78.67 98.33 64.78 101.23 64.78 101.23 76.33 108.55 76.33"/><polygon class="d" points="78.83 16.78 54.97 16.78 49.17 16.78 49.17 16.78 49.17 22.58 49.17 22.58 49.17 50.94 54.97 50.94 78.74 50.94 78.74 45.14 54.97 45.14 54.97 22.58 61.1 22.58 61.1 39.53 66.9 39.53 66.9 22.58 73.03 22.58 73.03 39.52 78.82 39.52 78.83 16.78"/><path class="d" d="M76.28,67.65l-.88.67A4.29,4.29,0,0,0,71,65.54c-2.5,0-3.85,1.26-3.85,2.86,0,1.29.7,2.13,3,2.61l2.71.59c2.69.59,3.7,1.66,3.7,3.41,0,2.29-2.1,3.87-5.19,3.87s-5-1.26-5.81-3.37l.93-.71c.59,2,2.4,3.11,4.92,3.11s4.06-1,4.06-2.84c0-1.16-.74-2-2.82-2.42L69.7,72C67,71.43,66,70.27,66,68.53c0-2.13,1.91-4,5-4,2.54,0,4.29,1,5.23,3.08"/><path class="d" d="M30.15,73.6c0,3.45-1.93,5.28-5.34,5.28s-5.36-1.83-5.36-5.28V64.79H20.5v8.6c0,3,1.49,4.52,4.31,4.52s4.29-1.53,4.29-4.52v-8.6h1Z"/></svg>